<svg xmlns="http://www.w3.org/2000/svg" viewBox="0 0 24 24" aria-hidden="true">
  <path fill="currentColor" d="M17.6 9H6.4C5.63 9 5 9.63 5 10.4v5.2C5 16.37 5.63 17 6.4 17H7v2.25c0 .69.56 1.25 1.25 1.25s1.25-.56 1.25-1.25V17h5v2.25c0 .69.56 1.25 1.25 1.25S17 19.94 17 19.25V17h.6c.77 0 1.4-.63 1.4-1.4v-5.2c0-.77-.63-1.4-1.4-1.4ZM8.4 13.25a.85.85 0 1 1 0-1.7.85.85 0 0 1 0 1.7Zm7.2 0a.85.85 0 1 1 0-1.7.85.85 0 0 1 0 1.7ZM7.12 7.8h9.76a4.78 4.78 0 0 0-1.22-2.82l1.08-1.08a.55.55 0 0 0-.78-.78L14.8 4.28A5.23 5.23 0 0 0 12 3.5c-1.03 0-1.98.28-2.8.78L8.04 3.12a.55.55 0 1 0-.78.78l1.08 1.08A4.78 4.78 0 0 0 7.12 7.8ZM3.25 9.5C2.56 9.5 2 10.06 2 10.75v4.5c0 .69.56 1.25 1.25 1.25s1.25-.56 1.25-1.25v-4.5c0-.69-.56-1.25-1.25-1.25Zm17.5 0c-.69 0-1.25.56-1.25 1.25v4.5c0 .69.56 1.25 1.25 1.25S22 15.94 22 15.25v-4.5c0-.69-.56-1.25-1.25-1.25Z"/>
</svg>
