<svg xmlns="http://www.w3.org/2000/svg" viewBox="0 0 24 24" aria-hidden="true">
  <path fill="currentColor" d="M7.15 8.2h9.7c.72 0 1.3.58 1.3 1.3v6.55c0 .72-.58 1.3-1.3 1.3h-.7v2.1c0 .64-.51 1.15-1.15 1.15s-1.15-.51-1.15-1.15v-2.1h-3.7v2.1c0 .64-.51 1.15-1.15 1.15s-1.15-.51-1.15-1.15v-2.1h-.7c-.72 0-1.3-.58-1.3-1.3V9.5c0-.72.58-1.3 1.3-1.3Zm1.1 1.95a.95.95 0 1 0 0 1.9.95.95 0 0 0 0-1.9Zm7.5 0a.95.95 0 1 0 0 1.9.95.95 0 0 0 0-1.9ZM6.35 7.1A5.72 5.72 0 0 1 9.1 3.7L7.85 2.45a.63.63 0 1 1 .9-.9l1.5 1.5a6.1 6.1 0 0 1 3.5 0l1.5-1.5a.63.63 0 0 1 .9.9L14.9 3.7a5.72 5.72 0 0 1 2.75 3.4H6.35ZM3.25 8.9c.69 0 1.25.56 1.25 1.25v5.1a1.25 1.25 0 1 1-2.5 0v-5.1c0-.69.56-1.25 1.25-1.25Zm17.5 0c.69 0 1.25.56 1.25 1.25v5.1a1.25 1.25 0 1 1-2.5 0v-5.1c0-.69.56-1.25 1.25-1.25Z"/>
</svg>
